Coordinates
version=1
nRows=29
nColumns=32
inDegrees=no

Units are S.I. units (second, meters, Newtons, ...)
If the header above contains a line with 'inDegrees', this indicates whether rotational values are in degrees (yes) or radians (no).

endheader
time	pelvis_tilt	pelvis_list	pelvis_rotation	pelvis_tx	pelvis_ty	pelvis_tz	hip_flexion_r	hip_adduction_r	hip_rotation_r	knee_angle_r	ankle_angle_r	subtalar_angle_r	mtp_angle_r	hip_flexion_l	hip_adduction_l	hip_rotation_l	knee_angle_l	ankle_angle_l	subtalar_angle_l	mtp_angle_l	lumbar_extension	lumbar_bending	lumbar_rotation	arm_flex_r	arm_add_r	arm_rot_r	elbow_flex_r	arm_flex_l	arm_add_l	arm_rot_l	elbow_flex_l
0	-0.218309	0.184858	0.105777	0.896609	1.01145	-0.302196	-0.345849	-0.169692	-0.478273	0.261214	-0.576642	0.0847248	0.012571	0.999651	0.0835002	-0.248977	1.1438	0.0858142	0.00420047	-0.0511797	0.020445	-0.250141	0.154991	-0.410844	-0.28048	-0.0729104	2.21239	-0.978772	-0.355135	-0.114126	2.16054
0.005	-0.223608	0.185592	0.102097	0.897429	1.01271	-0.301867	-0.353379	-0.17346	-0.45594	0.281954	-0.592472	0.0531285	0.0125777	0.984968	0.0847094	-0.257089	1.03867	0.063441	0.0160745	-0.0511451	0.0299088	-0.252505	0.168521	-0.41675	-0.284952	-0.073714	2.22803	-0.992019	-0.353273	-0.122595	2.16774
0.01	-0.227956	0.184031	0.0982563	0.898117	1.01364	-0.301548	-0.358826	-0.174609	-0.431688	0.308577	-0.601981	0.0203682	0.0125845	0.969181	0.0843208	-0.270985	0.936505	0.0404013	0.0356498	-0.0511106	0.0380123	-0.252142	0.181185	-0.422782	-0.289169	-0.07487	2.24208	-1.00323	-0.350896	-0.129902	2.17396
0.015	-0.231348	0.180219	0.094282	0.898695	1.01427	-0.301223	-0.362224	-0.173172	-0.405658	0.341015	-0.605429	-0.0134818	0.0125912	0.952328	0.0823781	-0.290736	0.837456	0.0168039	0.0629652	-0.051076	0.0447456	-0.249109	0.192947	-0.428936	-0.293127	-0.0763613	2.25454	-1.01243	-0.348007	-0.136065	2.17922
0.02	-0.233772	0.174289	0.0902637	0.899182	1.01459	-0.300879	-0.363653	-0.169262	-0.378233	0.379091	-0.603611	-0.0482712	0.012598	0.934532	0.0790259	-0.316503	0.741942	-0.00703793	0.0980796	-0.0510414	0.0500846	-0.243575	0.203696	-0.435192	-0.296817	-0.0781384	2.26536	-1.01965	-0.344614	-0.141123	2.18356
0.025	-0.235234	0.166485	0.0863803	0.899597	1.01464	-0.300514	-0.363225	-0.163086	-0.350065	0.422523	-0.597943	-0.0838184	0.0126047	0.916041	0.074555	-0.348425	0.650724	-0.0305982	0.14096	-0.0510069	0.0540046	-0.235849	0.213217	-0.441512	-0.300223	-0.0801121	2.27451	-1.02496	-0.340731	-0.145145	2.18705
0.03	-0.235781	0.157157	0.0829111	0.899951	1.01444	-0.300141	-0.36103	-0.154953	-0.322026	0.470964	-0.5903	-0.119936	0.0126115	0.897247	0.0694215	-0.386408	0.564849	-0.0532442	0.191285	-0.0509723	0.0565074	-0.226373	0.221187	-0.447839	-0.303324	-0.0821557	2.28194	-1.02846	-0.336384	-0.148216	2.18975
0.035	-0.235534	0.146752	0.0802178	0.900252	1.01401	-0.299784	-0.357093	-0.145277	-0.295123	0.524062	-0.582667	-0.156401	0.0126183	0.87867	0.0642307	-0.429882	0.485497	-0.0744211	0.248216	-0.0509378	0.0576471	-0.215696	0.227209	-0.454098	-0.306096	-0.0841184	2.28759	-1.03022	-0.331617	-0.150433	2.19177
0.04	-0.234682	0.135791	0.0786954	0.900498	1.01337	-0.299482	-0.351342	-0.134581	-0.270379	0.581485	-0.576769	-0.1929	0.012625	0.860883	0.0596812	-0.477617	0.413775	-0.0938404	0.310225	-0.0509032	0.057546	-0.20444	0.230874	-0.460209	-0.308509	-0.0858434	2.29141	-1.03033	-0.326506	-0.151888	2.19316
0.045	-0.233461	0.124832	0.0787002	0.900677	1.01255	-0.29928	-0.343627	-0.123469	-0.248695	0.642922	-0.573789	-0.228996	0.0126318	0.844427	0.0564711	-0.527677	0.35053	-0.111589	0.375064	-0.0508687	0.0563861	-0.193252	0.231849	-0.466094	-0.310522	-0.0871916	2.29339	-1.02885	-0.321163	-0.152653	2.19401
0.05	-0.232115	0.114411	0.0804808	0.900768	1.01156	-0.299227	-0.333767	-0.112576	-0.230731	0.708056	-0.574217	-0.264116	0.0126385	0.829707	0.0551775	-0.577543	0.29624	-0.128107	0.439908	-0.0508341	0.0543769	-0.182739	0.229943	-0.471692	-0.312086	-0.0880677	2.2935	-1.02578	-0.315738	-0.152774	2.19438
0.055	-0.230841	0.104982	0.0841346	0.900743	1.01041	-0.299358	-0.321617	-0.102498	-0.216838	0.776528	-0.577815	-0.297591	0.0126452	0.816944	0.0561389	-0.624432	0.25102	-0.144029	0.50167	-0.0507996	0.0517144	-0.173403	0.225151	-0.47696	-0.313142	-0.088443	2.29175	-1.02111	-0.310412	-0.152268	2.19432
0.06	-0.22976	0.0968687	0.0895969	0.900581	1.00912	-0.299686	-0.307134	-0.0937185	-0.207052	0.8479	-0.583698	-0.328714	0.012652	0.806152	0.059368	-0.665735	0.214728	-0.159944	0.55745	-0.0507651	0.0485436	-0.165592	0.217651	-0.481876	-0.313622	-0.0883652	2.28811	-1.01482	-0.305382	-0.151124	2.19391
0.065	-0.228892	0.0902338	0.0966586	0.900266	1.0077	-0.300198	-0.29042	-0.0865644	-0.201125	0.921634	-0.590488	-0.356821	0.0126587	0.797165	0.0645293	-0.69948	0.187099	-0.176177	0.604984	-0.0507306	0.0449317	-0.159478	0.207767	-0.486436	-0.313456	-0.0879478	2.28262	-1.00687	-0.300836	-0.14932	2.19324
0.07	-0.228152	0.0850885	0.105006	0.899796	1.00616	-0.300856	-0.271742	-0.0811926	-0.198598	0.9971	-0.596556	-0.38137	0.0126655	0.78966	0.0709925	-0.724662	0.167839	-0.192702	0.642953	-0.0506961	0.0408581	-0.15507	0.195908	-0.49065	-0.31258	-0.0873456	2.27527	-0.99728	-0.296934	-0.146838	2.1924
0.075	-0.22737	0.0813226	0.114272	0.899182	1.00452	-0.301606	-0.251507	-0.0776111	-0.198884	1.0736	-0.60029	-0.402022	0.0126722	0.783197	0.0779623	-0.741234	0.156643	-0.209183	0.671003	-0.0506616	0.0362208	-0.15224	0.182506	-0.494541	-0.310947	-0.0867284	2.26612	-0.986095	-0.293787	-0.143667	2.19149
0.08	-0.226315	0.0787629	0.124083	0.898451	1.0028	-0.30239	-0.230216	-0.0757325	-0.201344	1.15043	-0.600353	-0.418695	0.0126789	0.777251	0.0846564	-0.749771	0.153132	-0.225114	0.689461	-0.0506271	0.0308557	-0.150786	0.167962	-0.498145	-0.308524	-0.0862579	2.25522	-0.973414	-0.291457	-0.139807	2.19059
0.085	-0.224726	0.0772524	0.134088	0.897641	1.00101	-0.303159	-0.208407	-0.075456	-0.205333	1.22693	-0.595883	-0.431564	0.0126857	0.771241	0.090481	-0.751065	0.156765	-0.239916	0.698971	-0.0505926	0.0245585	-0.150505	0.152626	-0.501516	-0.30529	-0.086066	2.24263	-0.959372	-0.289968	-0.135273	2.18973
0.09	-0.222345	0.0767191	0.143968	0.8968	0.999193	-0.303874	-0.18659	-0.0767494	-0.210237	1.30251	-0.586582	-0.441025	0.0126924	0.764558	0.09515	-0.745804	0.166803	-0.252952	0.700212	-0.0505582	0.0171111	-0.151268	0.136788	-0.504708	-0.301238	-0.0862367	2.22843	-0.944127	-0.289312	-0.130092	2.18892
0.095	-0.218959	0.0772063	0.153445	0.895975	0.997359	-0.304518	-0.165177	-0.0796972	-0.215483	1.37673	-0.572706	-0.44762	0.0126991	0.756626	0.0987165	-0.734439	0.182343	-0.263447	0.693796	-0.0505237	0.00831673	-0.153058	0.120673	-0.507776	-0.296381	-0.0867952	2.21268	-0.927852	-0.289451	-0.124314	2.1881
0.1	-0.214442	0.078852	0.16229	0.895206	0.995526	-0.305087	-0.144416	-0.084492	-0.220555	1.44929	-0.554958	-0.451973	0.0127059	0.746999	0.10151	-0.717243	0.202457	-0.270351	0.680335	-0.0504893	-0.00195474	-0.155958	0.104437	-0.510757	-0.290756	-0.0877084	2.19544	-0.91072	-0.290324	-0.118005	2.1872
0.105	-0.208798	0.0818242	0.170333	0.89452	0.993698	-0.305587	-0.124326	-0.0913688	-0.224982	1.52001	-0.534312	-0.454689	0.0127126	0.735456	0.104008	-0.69451	0.226365	-0.272232	0.660579	-0.0504548	-0.0137189	-0.160096	0.0881609	-0.513672	-0.284433	-0.0888983	2.17675	-0.892901	-0.291843	-0.111244	2.18611
0.11	-0.20218	0.0862376	0.177471	0.893928	0.991859	-0.306032	-0.104649	-0.100508	-0.228339	1.58886	-0.511813	-0.456272	0.0127193	0.722083	0.106686	-0.666787	0.253579	-0.2673	0.635546	-0.0504204	-0.0268395	-0.165577	0.071854	-0.516519	-0.277508	-0.0902605	2.15667	-0.874542	-0.293902	-0.104125	2.18474
0.115	-0.194898	0.0920835	0.18367	0.893416	0.989975	-0.306435	-0.0848385	-0.11195	-0.230235	1.65588	-0.488384	-0.457047	0.0127261	0.707297	0.109906	-0.634966	0.283944	-0.253572	0.606479	-0.050386	-0.0410089	-0.172409	0.0554638	-0.519289	-0.270099	-0.091685	2.13523	-0.855763	-0.296379	-0.0967404	2.18301
0.12	-0.187394	0.0991962	0.188954	0.892958	0.987991	-0.306806	-0.0641011	-0.125537	-0.230301	1.72115	-0.464688	-0.457131	0.0127328	0.691795	0.113862	-0.600267	0.317579	-0.229229	0.574694	-0.0503516	-0.0557678	-0.180467	0.0389015	-0.521965	-0.262345	-0.0930722	2.11251	-0.836638	-0.299145	-0.0891758	2.18083
0.125	-0.180172	0.107264	0.193382	0.892505	0.985841	-0.307157	-0.0414903	-0.140903	-0.228177	1.78472	-0.441065	-0.456458	0.0127395	0.676433	0.11857	-0.564119	0.354719	-0.193097	0.541338	-0.0503173	-0.0705705	-0.189487	0.0220708	-0.52453	-0.254393	-0.0943475	2.0886	-0.817193	-0.302071	-0.0815011	2.17814
0.13	-0.173708	0.115869	0.19702	0.891997	0.983482	-0.307486	-0.0160373	-0.157505	-0.223506	1.84659	-0.417556	-0.454802	0.0127462	0.662058	0.123906	-0.527954	0.395515	-0.145144	0.507149	-0.0502829	-0.0848791	-0.19909	0.00490046	-0.526974	-0.246391	-0.0954709	2.06366	-0.797402	-0.305035	-0.0737658	2.17486
0.135	-0.168374	0.124564	0.199918	0.891375	0.980899	-0.307784	0.0131176	-0.1747	-0.215943	1.90665	-0.393965	-0.45182	0.012753	0.649355	0.129681	-0.492963	0.439834	-0.0868003	0.472291	-0.0502486	-0.0982614	-0.208846	-0.012634	-0.529291	-0.238487	-0.0964446	2.03787	-0.777186	-0.307931	-0.065998	2.17093
0.14	-0.164392	0.132967	0.202093	0.890582	0.978109	-0.30803	0.0466274	-0.191874	-0.205178	1.96469	-0.369954	-0.447075	0.0127597	0.638731	0.135743	-0.459873	0.487142	-0.0209032	0.436392	-0.0502142	-0.110455	-0.218364	-0.0305074	-0.531486	-0.230812	-0.0973091	2.01146	-0.756426	-0.310679	-0.0582151	2.1663
